<svg xmlns="http://www.w3.org/2000/svg" viewBox="0 0 64 64">
  <defs>
    <linearGradient id="g" x1="0" y1="0" x2="1" y2="1">
      <stop offset="0%" stop-color="#0b7f79"/>
      <stop offset="100%" stop-color="#0d5ea8"/>
    </linearGradient>
  </defs>
  <rect x="4" y="4" width="56" height="56" rx="14" fill="url(#g)"/>
  <path d="M21 40V24h6.5c5.3 0 8.5 3 8.5 8s-3.2 8-8.5 8H21zm5-4h1.6c2.6 0 4.3-1.5 4.3-4s-1.7-4-4.3-4H26v8z" fill="#ffffff"/>
  <path d="M49 41l-2.3-2.2c-1 .7-2.3 1.2-3.7 1.2-4 0-6.9-3.1-6.9-8s2.9-8 6.9-8 6.9 3.1 6.9 8c0 2.1-.6 3.9-1.7 5.3l2.7 2.7L49 41zm-6-5c2 0 3.5-1.6 3.5-4s-1.5-4-3.5-4-3.5 1.6-3.5 4 1.5 4 3.5 4z" fill="#ffffff"/>
</svg>
